<?xml version="1.0" encoding="UTF-8" standalone="no" ?>
<!DOCTYPE svg PUBLIC "-//W3C//DTD SVG 1.1//EN" "http://www.w3.org/Graphics/SVG/1.1/DTD/svg11.dtd">
<svg xmlns="http://www.w3.org/2000/svg" xmlns:xlink="http://www.w3.org/1999/xlink" version="1.1" width="1000" height="1000" viewBox="0 0 500 500" xml:space="preserve">
<desc>Created with Fabric.js 5.3.0</desc>
<defs>
</defs>
<g transform="matrix(2.0833333333 0 0 2.1367521368 250 250)" id="HfHYHR4tQ7Gwyq-mz_Og8"  >
<g style="" vector-effect="non-scaling-stroke"   >
		<g transform="matrix(1 0 0 1 0 0)" id="uDqluIJdwhIbVfcNMCl0C"  >
<path style="stroke: none; stroke-width: 1; stroke-dasharray: none; stroke-linecap: butt; stroke-dashoffset: 0; stroke-linejoin: miter; stroke-miterlimit: 4; fill: rgb(51,0,0); fill-rule: nonzero; opacity: 1;" vector-effect="non-scaling-stroke"  transform=" translate(-120, -117)" d="M 42.5 0 L 197.5 0 C 221 0 240 19 240 42.5 L 240 191.5 C 240 215 221 234 197.5 234 L 42.5 234 C 19 234 0 215 0 191.5 L 0 42.5 C 0 19 19 0 42.5 0 z" stroke-linecap="round" />
</g>
		<g transform="matrix(1 0 0 1 -21.1492855396 -4.3936291501)" id="RHzdycAJMKxxw4NTBWd11"  >
<path style="stroke: none; stroke-width: 1; stroke-dasharray: none; stroke-linecap: butt; stroke-dashoffset: 0; stroke-linejoin: miter; stroke-miterlimit: 4; fill: rgb(255,154,0); fill-rule: nonzero; opacity: 1;" vector-effect="non-scaling-stroke"  transform=" translate(-98.8507144604, -112.6063708499)" d="M 116.3 140.4 L 79.1 140.4 L 71.5 163.9 C 71.3 164.8 70.5 165.4 69.6 165.3 L 50.8 165.3 C 49.699999999999996 165.3 49.4 164.70000000000002 49.699999999999996 163.5 L 81.9 70.8 C 82.2 69.8 82.5 68.7 82.9 67.5 C 83.30000000000001 65.4 83.5 63.2 83.5 61 C 83.4 60.5 83.8 60 84.3 59.9 C 84.39999999999999 59.9 84.5 59.9 84.6 59.9 L 110.19999999999999 59.9 C 110.99999999999999 59.9 111.39999999999999 60.199999999999996 111.49999999999999 60.699999999999996 L 148 163.7 C 148.3 164.79999999999998 148 165.29999999999998 147 165.29999999999998 L 126.1 165.29999999999998 C 125.39999999999999 165.39999999999998 124.69999999999999 164.89999999999998 124.5 164.2 L 116.3 140.4 z M 84.9 120.1 L 110.30000000000001 120.1 C 109.70000000000002 118 108.9 115.5 108.00000000000001 112.89999999999999 C 107.10000000000001 110.19999999999999 106.20000000000002 107.3 105.30000000000001 104.3 C 104.30000000000001 101.2 103.4 98.2 102.4 95.1 C 101.4 92 100.5 89.1 99.7 86.19999999999999 C 98.9 83.39999999999999 98.2 80.79999999999998 97.5 78.39999999999999 L 97.3 78.39999999999999 C 96.39999999999999 82.69999999999999 95.3 86.99999999999999 93.89999999999999 91.3 C 92.39999999999999 96.1 90.89999999999999 101.1 89.3 106.1 C 87.9 111.2 86.4 115.9 84.9 120.1 L 84.9 120.1 z" stroke-linecap="round" />
</g>
		<g transform="matrix(1 0 0 1 49.9500028767 -8.35)" id="h34oS8_dHF0W2_W0_pLvS"  >
<path style="stroke: none; stroke-width: 1; stroke-dasharray: none; stroke-linecap: butt; stroke-dashoffset: 0; stroke-linejoin: miter; stroke-miterlimit: 4; fill: rgb(255,154,0); fill-rule: nonzero; opacity: 1;" vector-effect="non-scaling-stroke"  transform=" translate(-169.9500028767, -108.65)" d="M 169.8 77 C 166.5 77.1 163.3 75.8 160.9 73.5 C 158.6 71 157.4 67.7 157.5 64.3 C 157.4 60.9 158.7 57.699999999999996 161.1 55.4 C 163.5 53.1 166.7 51.9 170 51.9 C 173.9 51.9 176.9 53.1 179.1 55.4 C 181.29999999999998 57.8 182.5 61 182.4 64.3 C 182.5 67.7 181.3 71 178.9 73.5 C 176.6 75.9 173.2 77.2 169.8 77 z M 158.6 163.8 L 158.6 86.80000000000001 C 158.6 85.80000000000001 159 85.4 159.9 85.4 L 179.70000000000002 85.4 C 180.60000000000002 85.4 181.00000000000003 85.9 181.00000000000003 86.80000000000001 L 181.00000000000003 163.8 C 181.00000000000003 164.9 180.60000000000002 165.4 179.70000000000002 165.4 L 160.10000000000002 165.4 C 159.1 165.4 158.6 164.8 158.6 163.8 z" stroke-linecap="round" />
</g>
</g>
</g>
</svg>