<?xml version="1.0" encoding="UTF-8" standalone="no" ?>
<!DOCTYPE svg PUBLIC "-//W3C//DTD SVG 1.1//EN" "http://www.w3.org/Graphics/SVG/1.1/DTD/svg11.dtd">
<svg xmlns="http://www.w3.org/2000/svg" xmlns:xlink="http://www.w3.org/1999/xlink" version="1.1" width="800" height="800" viewBox="0 0 800 800" xml:space="preserve">
<desc>Created with Fabric.js 5.3.0</desc>
<defs>
</defs>
<g transform="matrix(1 0 0 1 401.2692307692 398.7307692308)" id="IG3DNd6G5iXnveCS9EBgT"  >
<g style="" vector-effect="non-scaling-stroke"   >
		<g transform="matrix(1.5625 0 0 1.5625 108.984375 -8.4375)" id="8CFANF6n6ZqyNBEcySYli"  >
<path style="stroke: none; stroke-width: 1; stroke-dasharray: none; stroke-linecap: butt; stroke-dashoffset: 0; stroke-linejoin: miter; stroke-miterlimit: 4; fill: rgb(152,23,36); fill-rule: nonzero; opacity: 1;" vector-effect="non-scaling-stroke"  transform=" translate(-325.75, -250.6)" d="M 344.1 244.5 C 339.20000000000005 240.3 333.1 238.2 325.90000000000003 238.2 C 318.1 238.2 312.00000000000006 240.39999999999998 307.6 244.89999999999998 C 303.3 249.39999999999998 300.6 255.39999999999998 299.40000000000003 263 L 352.1 263 C 351.7 254.9 348.9 248.8 344.1 244.5 z" stroke-linecap="round" />
</g>
		<g transform="matrix(1.5625 0 0 1.5625 -100.078125 44.53125)" id="8wIu9vrP_Ni-3ud7yp6X0"  >
<path style="stroke: none; stroke-width: 1; stroke-dasharray: none; stroke-linecap: butt; stroke-dashoffset: 0; stroke-linejoin: miter; stroke-miterlimit: 4; fill: rgb(152,23,36); fill-rule: nonzero; opacity: 1;" vector-effect="non-scaling-stroke"  transform=" translate(-191.95, -284.5)" d="M 214.3 266.1 C 210.5 264.40000000000003 205.3 263.5 198.5 263.40000000000003 L 159.5 263.40000000000003 L 159.5 305.6 L 198 305.6 C 204.9 305.6 210.2 304.70000000000005 214 302.8 C 221 299.3 224.4 292.8 224.4 283.1 C 224.4 274.9 221 269.2 214.3 266.1 z" stroke-linecap="round" />
</g>
		<g transform="matrix(1.5625 0 0 1.5625 0 0)" id="QIke5Axrh7eKvMwDp0ffW"  >
<path style="stroke: none; stroke-width: 1; stroke-dasharray: none; stroke-linecap: butt; stroke-dashoffset: 0; stroke-linejoin: miter; stroke-miterlimit: 4; fill: rgb(152,23,36); fill-rule: nonzero; opacity: 1;" vector-effect="non-scaling-stroke"  transform=" translate(-256, -256)" d="M 256 0 C 114.6 0 0 114.6 0 256 C 0 397.4 114.6 512 256 512 C 397.4 512 512 397.4 512 256 C 512 114.60000000000002 397.4 0 256 0 z M 291.6 182.3 L 359.40000000000003 182.3 L 359.40000000000003 202 L 291.6 202 L 291.6 182.3 L 291.6 182.3 z M 250.7 310.6 C 247.7 315.5 244 319.70000000000005 239.5 323 C 234.5 326.9 228.5 329.5 221.6 331 C 214.7 332.4 207.29999999999998 333.1 199.2 333.1 L 128 333.1 L 128 174.9 L 204.5 174.9 C 223.8 175.20000000000002 237.5 180.8 245.5 191.8 C 250.3 198.5 252.7 206.60000000000002 252.7 216 C 252.7 225.6 250.29999999999998 233.4 245.39999999999998 239.3 C 242.7 242.60000000000002 238.59999999999997 245.60000000000002 233.29999999999998 248.3 C 241.39999999999998 251.3 247.49999999999997 255.9 251.6 262.3 C 255.70000000000002 268.70000000000005 257.8 276.40000000000003 257.8 285.5 C 257.8 294.7 255.4 303.1 250.7 310.6 z M 384 283.2 L 298.8 283.2 C 299.3 294.9 303.3 303.2 311 307.9 C 315.7 310.79999999999995 321.3 312.29999999999995 327.9 312.29999999999995 C 334.79999999999995 312.29999999999995 340.5 310.49999999999994 344.9 306.9 C 347.29999999999995 305 349.4 302.29999999999995 351.2 298.79999999999995 L 382.4 298.79999999999995 C 381.59999999999997 305.69999999999993 377.79999999999995 312.79999999999995 371.09999999999997 319.99999999999994 C 360.59999999999997 331.3999999999999 345.99999999999994 337.09999999999997 327.09999999999997 337.09999999999997 C 311.49999999999994 337.09999999999997 297.79999999999995 332.29999999999995 285.9 322.7 C 274 313.09999999999997 268 297.5 268 275.9 C 268 255.59999999999997 273.4 240.09999999999997 284.1 229.29999999999998 C 294.90000000000003 218.49999999999997 308.8 213.1 325.90000000000003 213.1 C 336.1 213.1 345.3 214.9 353.40000000000003 218.6 C 361.6 222.2 368.3 228 373.6 235.9 C 378.40000000000003 242.8 381.5 250.9 382.90000000000003 260.1 C 383.8 265.4 384.1 273.1 384 283.2 z" stroke-linecap="round" />
</g>
		<g transform="matrix(1.5625 0 0 1.5625 -102.5 -56.6364397321)" id="UgYPTcEt9gm2FOy_1OGn1"  >
<path style="stroke: none; stroke-width: 1; stroke-dasharray: none; stroke-linecap: butt; stroke-dashoffset: 0; stroke-linejoin: miter; stroke-miterlimit: 4; fill: rgb(152,23,36); fill-rule: nonzero; opacity: 1;" vector-effect="non-scaling-stroke"  transform=" translate(-190.4, -219.7526785714)" d="M 214.8 233.3 C 219.10000000000002 230.70000000000002 221.20000000000002 226 221.20000000000002 219.4 C 221.20000000000002 212 218.4 207.20000000000002 212.70000000000002 204.8 C 207.8 203.20000000000002 201.60000000000002 202.3 194.00000000000003 202.3 L 159.60000000000002 202.3 L 159.60000000000002 237.20000000000002 L 198 237.20000000000002 C 204.9 237.3 210.4 236 214.8 233.3 z" stroke-linecap="round" />
</g>
</g>
</g>
</svg>