<?xml version="1.0" encoding="UTF-8" standalone="no" ?>
<!DOCTYPE svg PUBLIC "-//W3C//DTD SVG 1.1//EN" "http://www.w3.org/Graphics/SVG/1.1/DTD/svg11.dtd">
<svg xmlns="http://www.w3.org/2000/svg" xmlns:xlink="http://www.w3.org/1999/xlink" version="1.1" width="1000" height="1000" viewBox="0 0 500 500" xml:space="preserve">
<desc>Created with Fabric.js 5.3.0</desc>
<defs>
</defs>
<g transform="matrix(1.0643959553 0 0 1.0916285734 249.6268656716 250.3731343284)" id="3jpFmJ9O4R46RgNJyPuFa"  >
<g style="" vector-effect="non-scaling-stroke"   >
		<g transform="matrix(1.953125 0 0 1.953125 0 0)" id="2yywjd_XB0Zk-rjrv6sYq"  >
<path style="stroke: none; stroke-width: 1; stroke-dasharray: none; stroke-linecap: butt; stroke-dashoffset: 0; stroke-linejoin: miter; stroke-miterlimit: 4; fill: rgb(73,2,31); fill-rule: nonzero; opacity: 1;" vector-effect="non-scaling-stroke"  transform=" translate(-128, -121)" d="M 50.5 4 L 205.5 4 C 229 4 248 23 248 46.5 L 248 195.5 C 248 219 229 238 205.5 238 L 50.5 238 C 27 238 8 219 8 195.5 L 8 46.5 C 8 23 27 4 50.5 4 z" stroke-linecap="round" />
</g>
		<g transform="matrix(1.953125 0 0 1.953125 -85.83984375 -8.5109436053)" id="gISbxVp7EzYKHfM7deaq9"  >
<path style="stroke: none; stroke-width: 1; stroke-dasharray: none; stroke-linecap: butt; stroke-dashoffset: 0; stroke-linejoin: miter; stroke-miterlimit: 4; fill: rgb(255,51,102); fill-rule: nonzero; opacity: 1;" vector-effect="non-scaling-stroke"  transform=" translate(-84.05, -116.6423968741)" d="M 95.2 65.2 L 95.2 167.8 C 95.2 168.9 94.7 169.4 93.8 169.4 L 74.2 169.4 C 73.3 169.4 72.9 168.9 72.9 167.8 L 72.9 65.2 C 72.9 64.3 73.4 63.900000000000006 74.30000000000001 63.900000000000006 L 93.80000000000001 63.900000000000006 C 94.4 63.800000000000004 95.00000000000001 64.2 95.10000000000001 64.9 C 95.2 65 95.2 65.1 95.2 65.2 z" stroke-linecap="round" />
</g>
		<g transform="matrix(1.953125 0 0 1.953125 39.2541473332 -15.3426311062)" id="LVm9Oe7Qe6QCSBud6A1xF"  >
<path style="stroke: none; stroke-width: 1; stroke-dasharray: none; stroke-linecap: butt; stroke-dashoffset: 0; stroke-linejoin: miter; stroke-miterlimit: 4; fill: rgb(255,51,102); fill-rule: nonzero; opacity: 1;" vector-effect="non-scaling-stroke"  transform=" translate(-148.0981234346, -113.1445728736)" d="M 152.8 171 C 145.4 171.1 138 169.6 131.3 166.5 C 125.00000000000001 163.6 119.80000000000001 158.8 116.20000000000002 152.9 C 112.50000000000001 146.8 110.70000000000002 139.20000000000002 110.70000000000002 130.1 C 110.60000000000002 122.69999999999999 112.50000000000001 115.39999999999999 116.20000000000002 109 C 120.00000000000001 102.5 125.50000000000001 97.1 132.10000000000002 93.5 C 139.10000000000002 89.6 147.50000000000003 87.7 157.40000000000003 87.7 C 157.90000000000003 87.7 158.60000000000002 87.7 159.50000000000003 87.8 C 160.40000000000003 87.89999999999999 161.40000000000003 87.89999999999999 162.60000000000002 88 L 162.60000000000002 56.4 C 162.60000000000002 55.699999999999996 162.90000000000003 55.3 163.60000000000002 55.3 L 183.90000000000003 55.3 C 184.40000000000003 55.199999999999996 184.80000000000004 55.599999999999994 184.90000000000003 56 C 184.90000000000003 56.1 184.90000000000003 56.2 184.90000000000003 56.2 L 184.90000000000003 151.4 C 184.90000000000003 153.20000000000002 185.00000000000003 155.20000000000002 185.10000000000002 157.4 C 185.3 159.5 185.40000000000003 161.5 185.50000000000003 163.20000000000002 C 185.50000000000003 163.9 185.20000000000002 164.50000000000003 184.50000000000003 164.8 C 179.30000000000004 167 173.80000000000004 168.60000000000002 168.20000000000002 169.60000000000002 C 163.2 170.5 158 171 152.8 171 z M 162.6 151 L 162.6 107 C 161.7 106.8 160.79999999999998 106.6 159.9 106.5 C 158.8 106.4 157.70000000000002 106.3 156.6 106.3 C 152.7 106.3 148.79999999999998 107.1 145.29999999999998 108.89999999999999 C 141.89999999999998 110.6 138.99999999999997 113.1 136.79999999999998 116.3 C 134.6 119.5 133.49999999999997 123.8 133.49999999999997 129 C 133.39999999999998 132.5 133.99999999999997 136 135.19999999999996 139.3 C 136.19999999999996 142 137.69999999999996 144.4 139.69999999999996 146.4 C 141.59999999999997 148.20000000000002 143.89999999999995 149.6 146.49999999999997 150.4 C 149.19999999999996 151.3 151.99999999999997 151.70000000000002 154.79999999999998 151.70000000000002 C 156.29999999999998 151.70000000000002 157.7 151.60000000000002 158.99999999999997 151.50000000000003 C 160.3 151.6 161.5 151.4 162.6 151 z" stroke-linecap="round" />
</g>
</g>
</g>
</svg>