<?xml version="1.0" encoding="UTF-8" standalone="no" ?>
<!DOCTYPE svg PUBLIC "-//W3C//DTD SVG 1.1//EN" "http://www.w3.org/Graphics/SVG/1.1/DTD/svg11.dtd">
<svg xmlns="http://www.w3.org/2000/svg" xmlns:xlink="http://www.w3.org/1999/xlink" version="1.1" width="1000" height="1000" viewBox="0 0 500 500" xml:space="preserve">
<desc>Created with Fabric.js 5.3.0</desc>
<defs>
</defs>
<g transform="matrix(2.0833333333 0 0 2.1367521368 250 250)" id="I9mg99LX7ZPugCEfLP0bv"  >
<g style="" vector-effect="non-scaling-stroke"   >
		<g transform="matrix(1 0 0 1 0 0)" id="pE7r9WNgdwJj_fiVRYOCB"  >
<path style="stroke: none; stroke-width: 1; stroke-dasharray: none; stroke-linecap: butt; stroke-dashoffset: 0; stroke-linejoin: miter; stroke-miterlimit: 4; fill: rgb(0,30,54); fill-rule: nonzero; opacity: 1;" vector-effect="non-scaling-stroke"  transform=" translate(-120, -117)" d="M 42.5 0 L 197.5 0 C 221 0 240 19 240 42.5 L 240 191.5 C 240 215 221 234 197.5 234 L 42.5 234 C 19 234 0 215 0 191.5 L 0 42.5 C 0 19 19 0 42.5 0 z" stroke-linecap="round" />
</g>
		<g transform="matrix(1 0 0 1 -28.2 -4.55)" id="BloVdo0zuLDQmHILiBW_V"  >
<path style="stroke: none; stroke-width: 1; stroke-dasharray: none; stroke-linecap: butt; stroke-dashoffset: 0; stroke-linejoin: miter; stroke-miterlimit: 4; fill: rgb(49,168,255); fill-rule: nonzero; opacity: 1;" vector-effect="non-scaling-stroke"  transform=" translate(-91.8, -112.45)" d="M 54 164.1 L 54 61.2 C 54 60.5 54.3 60.1 55 60.1 C 56.7 60.1 58.3 60.1 60.6 60 C 63 59.9 65.5 59.9 68.2 59.8 C 70.9 59.699999999999996 73.8 59.699999999999996 76.9 59.599999999999994 C 80 59.49999999999999 83 59.49999999999999 86 59.49999999999999 C 94.2 59.49999999999999 101 60.49999999999999 106.6 62.599999999999994 C 111.6 64.3 116.19999999999999 67.1 120 70.8 C 123.2 74 125.7 77.89999999999999 127.3 82.2 C 128.8 86.4 129.6 90.7 129.6 95.2 C 129.6 103.8 127.6 110.9 123.6 116.5 C 119.6 122.1 114 126.3 107.5 128.7 C 100.7 131.2 93.2 132.1 85 132.1 C 82.6 132.1 81 132.1 80 132 C 79 131.9 77.6 131.9 75.7 131.9 L 75.7 164 C 75.8 164.7 75.3 165.3 74.60000000000001 165.4 C 74.50000000000001 165.4 74.4 165.4 74.2 165.4 L 55.2 165.4 C 54.4 165.4 54 165 54 164.1 z M 75.8 79.4 L 75.8 113 C 77.2 113.1 78.5 113.2 79.7 113.2 L 85 113.2 C 88.9 113.2 92.8 112.60000000000001 96.5 111.4 C 99.7 110.5 102.5 108.60000000000001 104.7 106.10000000000001 C 106.8 103.60000000000001 107.8 100.2 107.8 95.80000000000001 C 107.89999999999999 92.70000000000002 107.1 89.60000000000001 105.5 86.9 C 103.8 84.30000000000001 101.4 82.30000000000001 98.5 81.2 C 94.8 79.7 90.8 79.10000000000001 86.7 79.2 C 84.10000000000001 79.2 81.8 79.2 79.9 79.3 C 77.9 79.2 76.5 79.3 75.8 79.4 L 75.8 79.4 z" stroke-linecap="round" />
</g>
		<g transform="matrix(1 0 0 1 49.3478044301 8.9)" id="Yi2Sg-maHbYARyR8i_itQ"  >
<path style="stroke: none; stroke-width: 1; stroke-dasharray: none; stroke-linecap: butt; stroke-dashoffset: 0; stroke-linejoin: miter; stroke-miterlimit: 4; fill: rgb(49,168,255); fill-rule: nonzero; opacity: 1;" vector-effect="non-scaling-stroke"  transform=" translate(-169.3478044301, -125.9)" d="M 192 106.9 C 189 105.30000000000001 185.8 104.2 182.4 103.5 C 178.70000000000002 102.7 175 102.2 171.20000000000002 102.2 C 169.20000000000002 102.10000000000001 167.10000000000002 102.4 165.20000000000002 102.9 C 163.9 103.2 162.8 103.9 162.10000000000002 104.9 C 161.60000000000002 105.7 161.3 106.7 161.3 107.60000000000001 C 161.3 108.50000000000001 161.70000000000002 109.4 162.3 110.2 C 163.20000000000002 111.3 164.4 112.2 165.70000000000002 112.9 C 168.00000000000003 114.10000000000001 170.4 115.2 172.8 116.2 C 178.20000000000002 118 183.4 120.5 188.20000000000002 123.5 C 191.50000000000003 125.6 194.20000000000002 128.4 196.10000000000002 131.8 C 197.70000000000002 135 198.50000000000003 138.5 198.40000000000003 142.10000000000002 C 198.50000000000003 146.8 197.10000000000002 151.50000000000003 194.50000000000003 155.40000000000003 C 191.70000000000002 159.40000000000003 187.80000000000004 162.50000000000003 183.30000000000004 164.30000000000004 C 178.40000000000003 166.40000000000003 172.40000000000003 167.50000000000003 165.20000000000005 167.50000000000003 C 160.60000000000005 167.50000000000003 156.10000000000005 167.10000000000002 151.60000000000005 166.20000000000002 C 148.10000000000005 165.60000000000002 144.60000000000005 164.50000000000003 141.40000000000006 163.00000000000003 C 140.70000000000007 162.60000000000002 140.20000000000007 161.90000000000003 140.30000000000007 161.10000000000002 L 140.30000000000007 143.70000000000002 C 140.30000000000007 143.4 140.40000000000006 143.00000000000003 140.70000000000007 142.8 C 141.00000000000009 142.60000000000002 141.30000000000007 142.70000000000002 141.60000000000008 142.9 C 145.50000000000009 145.20000000000002 149.60000000000008 146.8 154.00000000000009 147.8 C 157.8000000000001 148.8 161.8000000000001 149.3 165.8000000000001 149.3 C 169.6000000000001 149.3 172.3000000000001 148.8 174.1000000000001 147.9 C 175.7000000000001 147.20000000000002 176.8000000000001 145.5 176.8000000000001 143.70000000000002 C 176.8000000000001 142.3 176.00000000000009 141.00000000000003 174.4000000000001 139.70000000000002 C 172.8000000000001 138.4 169.50000000000009 136.9 164.60000000000008 135.00000000000003 C 159.50000000000009 133.20000000000002 154.80000000000007 130.80000000000004 150.4000000000001 127.80000000000003 C 147.3000000000001 125.60000000000002 144.7000000000001 122.70000000000003 142.8000000000001 119.30000000000003 C 141.2000000000001 116.10000000000002 140.4000000000001 112.60000000000002 140.50000000000009 109.10000000000002 C 140.50000000000009 104.80000000000003 141.70000000000007 100.70000000000002 143.9000000000001 97.00000000000003 C 146.4000000000001 93.00000000000003 150.10000000000008 89.80000000000003 154.4000000000001 87.80000000000003 C 159.10000000000008 85.40000000000002 165.00000000000009 84.30000000000003 172.10000000000008 84.30000000000003 C 176.20000000000007 84.30000000000003 180.4000000000001 84.60000000000002 184.50000000000009 85.20000000000003 C 187.50000000000009 85.60000000000004 190.4000000000001 86.40000000000003 193.10000000000008 87.50000000000003 C 193.50000000000009 87.60000000000002 193.9000000000001 88.00000000000003 194.10000000000008 88.40000000000003 C 194.20000000000007 88.80000000000004 194.30000000000007 89.20000000000003 194.30000000000007 89.60000000000004 L 194.30000000000007 105.90000000000003 C 194.30000000000007 106.30000000000004 194.10000000000008 106.70000000000003 193.80000000000007 106.90000000000003 C 192.9 107.1 192.4 107.1 192 106.9 z" stroke-linecap="round" />
</g>
</g>
</g>
</svg>