<?xml version="1.0" encoding="UTF-8" standalone="no" ?>
<!DOCTYPE svg PUBLIC "-//W3C//DTD SVG 1.1//EN" "http://www.w3.org/Graphics/SVG/1.1/DTD/svg11.dtd">
<svg xmlns="http://www.w3.org/2000/svg" xmlns:xlink="http://www.w3.org/1999/xlink" version="1.1" width="1000" height="1000" viewBox="0 0 500 500" xml:space="preserve">
<desc>Created with Fabric.js 5.3.0</desc>
<defs>
</defs>
<g transform="matrix(2.0788983502 0 0 2.1320870574 250.3409363524 250.3273200442)" id="wCpMQ6YRO3KQkfCwlaBfo"  >
<path style="stroke: none; stroke-width: 1; stroke-dasharray: none; stroke-linecap: butt; stroke-dashoffset: 0; stroke-linejoin: miter; stroke-miterlimit: 4; fill: rgb(71,1,55); fill-rule: nonzero; opacity: 1;" vector-effect="non-scaling-stroke"  transform=" translate(0, 0)" d="M -77.5 -117 L 77.5 -117 C 101 -117 120 -98 120 -74.5 L 120 74.5 C 120 98 101 117 77.5 117 L -77.5 117 C -101 117 -120 98 -120 74.5 L -120 -74.5 C -120 -98 -101 -117 -77.5 -117 z" stroke-linecap="round" />
</g>
<g transform="matrix(8.9104323342 0 0 9.2404361482 172.330451491 240.4163989865)" id="ftpb1R1SOjAAtnq7yNaVk"  >
<path style="stroke: none; stroke-width: 1; stroke-dasharray: none; stroke-linecap: butt; stroke-dashoffset: 0; stroke-linejoin: miter; stroke-miterlimit: 4; fill: rgb(255,97,246); fill-rule: nonzero; opacity: 1;" vector-effect="non-scaling-stroke"  transform=" translate(-19.28330191, -25.9895138923)" d="M 29.50075 14.41935 L 22.61892 25.49609 L 29.9822 37.48763 C 30.02914957740428 37.57216393738639 30.042405654987032 37.671321969620195 30.019309999999997 37.76522 C 29.993919999999996 37.85189 29.90798 37.90755 29.760029999999997 37.93172 L 24.50612 37.93172 C 24.1984211442455 37.9628228590395 23.898972150223578 37.820158165498334 23.72927 37.56161 C 23.235129999999998 36.59969 22.74196 35.71461 22.2488 34.764610000000005 Q 21.50905 33.34078 20.67653 31.860070000000004 Q 19.84453 30.380940000000002 19.03005 28.863240000000005 L 18.99294 28.863240000000005 Q 18.25246 30.343470000000003 17.45778 31.823240000000006 Q 16.66091 33.303470000000004 15.88503 34.76465 C 15.36696 35.73950000000001 14.83669 36.6368 14.29372 37.59872 C 14.211458353713198 37.810049636503365 14.002557970021257 37.94445171496354 13.77614 37.93172 L 8.70681 37.93172 C 8.664727203388608 37.9360336000572 8.622769841182675 37.92245481197763 8.59119397696318 37.8943028366494 C 8.559618112743681 37.86615086132118 8.541333633522784 37.82602005583947 8.54081 37.783719999999995 C 8.52639697592555 37.69352973693237 8.546067102255126 37.60120348250395 8.59599 37.524719999999995 L 15.737100000000002 25.866189999999996 L 8.781 14.38225 C 8.70678 14.2841 8.69506 14.20378 8.74389 14.141770000000001 C 8.799342435586368 14.077804245028632 8.881585736656556 14.043549776861436 8.966050000000001 14.049240000000001 L 14.183340000000001 14.049240000000001 C 14.297084695001312 14.0430403568663 14.410794380157144 14.062046606343097 14.516340000000001 14.1049 C 14.60460361776506 14.155133704134654 14.680382153935893 14.224653195748974 14.73802 14.30827 C 15.182350000000001 15.29509 15.67552 16 16.21802 16.98608 Q 17.03174 18.46667 17.8645 19.90918 Q 18.69727 21.35204 19.40015 22.832279999999997 L 19.43726 22.832279999999997 Q 20.177 21.315419999999996 20.93526 19.872279999999996 Q 21.69405 18.429059999999996 22.48946 16.967739999999996 C 23.019740000000002 15.993619999999996 23.53097 15.307259999999996 24.02511 14.345349999999996 C 24.053241614476907 14.253931681981081 24.10417292857638 14.17117517917945 24.17311 14.104869999999996 C 24.264393666411667 14.05841975373845 24.367077485518916 14.039103854683026 24.469 14.049209999999997 L 29.31617 14.049209999999997 C 29.412406176797386 14.025615521132751 29.51214966090999 14.071829673878772 29.556369433188042 14.160501613618875 C 29.600589205466097 14.249173553358975 29.577488928285007 14.35664860967955 29.50074 14.419319999999997 Z" stroke-linecap="round" />
</g>
<g transform="matrix(8.9104323342 0 0 9.2404361482 344.3152424447 233.4642167589)" id="cKamEdoOqkJd1rPNB9Ncw"  >
<path style="stroke: none; stroke-width: 1; stroke-dasharray: none; stroke-linecap: butt; stroke-dashoffset: 0; stroke-linejoin: miter; stroke-miterlimit: 4; fill: rgb(255,97,246); fill-rule: nonzero; opacity: 1;" vector-effect="non-scaling-stroke"  transform=" translate(-38.584811029, -25.2371487316)" d="M 39.74489 38.37231 C 38.04187281366063 38.3982299676131 36.35448599710083 38.04427312985948 34.80544 37.33618 C 33.36223259801469 36.6682732042171 32.155724844686645 35.57807140350323 31.345439999999996 34.20972 C 30.455427244828645 32.612322324986344 30.020389593352462 30.801489903500823 30.087629999999997 28.97412 C 30.073676233968435 27.27601895859736 30.507516538380152 25.604232879412713 31.345439999999996 24.127200000000002 C 32.208783072287446 22.62278244967639 33.478238488428715 21.391822263676143 35.00851999999999 20.5752 C 36.79940329859013 19.642519220765223 38.79928235205364 19.183955332236486 40.81760999999999 19.243199999999998 Q 41.00290999999999 19.243199999999998 41.29861 19.26176 C 41.49588 19.274449999999998 41.915969999999994 19.29301 42.18745 19.31718 L 42.18745 12.77108 C 42.14308520358467 12.447647946733507 42.36720729776311 12.148726340918227 42.69011 12.10066 L 46.27124 12.10066 C 46.64021647143736 12.101736444534277 46.93906355546572 12.400583528562635 46.94014 12.76956 L 46.94014 33.85815 Q 46.94014 34.48767 46.99532 35.22729 Q 47.05098 35.967780000000005 47.08809 36.55908 C 47.09735976821307 36.71630604768438 47.00939838801792 36.86316758701056 46.86641 36.9292 C 45.720997689296226 37.42954730013806 44.523821558398396 37.801841492916544 43.29666 38.03931 C 42.12496878051272 38.255521664509786 40.93635094962173 38.366961802155714 39.74489 38.37231 Z M 42.10142 33.78418 L 42.10142 23.68311 C 41.86761835228101 23.62970004429521 41.630375935635094 23.59266349575854 41.39141999999999 23.57227 C 41.13929954696476 23.54681836808595 40.88603082504573 23.534431802276682 40.63263 23.53516 C 39.73481921621566 23.526222966471835 38.84754390134345 23.729040498917477 38.04278 24.12716 C 36.27847981894827 24.968309584478046 35.20741056371551 26.802216856308963 35.34161 28.752159999999996 C 35.32375731801408 29.55870081598196 35.45553937912477 30.361565400707388 35.73028 31.12008 C 35.9537718722047 31.73138703111732 36.307290295045334 32.28689892190083 36.766420000000004 32.74825 C 37.20571913188789 33.17267816088349 37.737598353692825 33.489266985771934 38.320130000000006 33.67306 C 38.93545268954134 33.87237231924143 39.57860980515368 33.97233954079923 40.22540000000001 33.9692 Q 40.743950000000005 33.9692 41.18780000000001 33.93209 C 41.496246068388736 33.9110354274343 41.80208648271558 33.861521564249294 42.10142 33.78418 Z" stroke-linecap="round" />
</g>
</svg>